# xmcd
#
# Track frame offsets: 
#        182
#        12532
#        26355
#        36122
#        52305
#        69502
#        85835
#        98877
#        114127
#        130382
#        148452
#        163560
#        176055
#        188972
#        199255
#        212327
#        224635
#        236625
#        252107
#        268850
#
# Disc length: 3779 seconds
#
# Revision: 3
# Processed by: cddbd v1.5.2PL0 Copyright (c) Steve Scherf et al.
# Submitted via: ExactAudioCopy v0.95b4
#
DISCID=300ec114
DTITLE=Waylon Jennings - Music Man  -  Black On Black
DYEAR=2003
DGENRE=Country
TTITLE0=Clyde
TTITLE1=It's Alright
TTITLE2=Theme From The Dukes Of Hazzard
TTITLE3=Nashville Wimmin
TTITLE4=Do It Again
TTITLE5=Sweet Music Man
TTITLE6=Storms Never Last
TTITLE7=He Went To Paris
TTITLE8=What About You
TTITLE9=Waltz Across Texas
TTITLE10=Women Do Know How To Carry On
TTITLE11=Honky Tonk Blues
TTITLE12=Just To Satisfy You
TTITLE13=We Had It Made As Lovers
TTITLE14=Shine
TTITLE15=Folsom Prison Blues
TTITLE16=Gonna Write A Letter
TTITLE17=May I Borrow Some Sugar From You
TTITLE18=Song For The Life
TTITLE19=Get Naked With Me
EXTD=
EXTT0=
EXTT1=
EXTT2=
EXTT3=
EXTT4=
EXTT5=
EXTT6=
EXTT7=
EXTT8=
EXTT9=
EXTT10=
EXTT11=
EXTT12=
EXTT13=
EXTT14=
EXTT15=
EXTT16=
EXTT17=
EXTT18=
EXTT19=
PLAYORDER=
